<?xml version="1.0" encoding="UTF-8"?>
<!DOCTYPE svg PUBLIC "-//W3C//DTD SVG 1.1//EN" "http://www.w3.org/Graphics/SVG/1.1/DTD/svg11.dtd">
<svg xmlns="http://www.w3.org/2000/svg" version="1.1" width="1000px" height="1290px" style="shape-rendering:geometricPrecision; text-rendering:geometricPrecision; image-rendering:optimizeQuality; fill-rule:evenodd; clip-rule:evenodd" xmlns:xlink="http://www.w3.org/1999/xlink">
<g><path style="opacity:0.988" fill="#d77fc9" d="M 853.5,185.5 C 848.952,187.107 844.619,189.274 840.5,192C 844.861,194.512 849.194,197.012 853.5,199.5C 871.412,209.239 888.412,220.405 904.5,233C 936.827,261.312 947.327,296.145 936,337.5C 930.155,350.352 921.989,361.519 911.5,371C 904.225,374.414 896.559,375.414 888.5,374C 883.454,372.818 878.454,371.818 873.5,371C 886.874,393.583 900.374,416.083 914,438.5C 927.617,466.296 933.617,495.629 932,526.5C 929.065,540.55 921.565,551.383 909.5,559C 926.244,566.203 941.911,575.203 956.5,586C 976.289,603.744 987.455,625.91 990,652.5C 990.667,676.833 990.667,701.167 990,725.5C 989.47,743.743 987.136,761.743 983,779.5C 976.696,806.905 961.196,814.071 936.5,801C 931.737,798.202 927.237,795.036 923,791.5C 934.153,819.169 944.82,847.169 955,875.5C 962.426,896.777 968.426,918.444 973,940.5C 977,968.829 974.333,996.496 965,1023.5C 950.194,1062.32 924.361,1072.15 887.5,1053C 882.581,1049.96 877.748,1046.79 873,1043.5C 880.908,1068.9 888.241,1094.57 895,1120.5C 901.402,1144.24 902.735,1168.24 899,1192.5C 891.398,1225.55 873.231,1233.05 844.5,1215C 836.673,1209.33 829.006,1203.5 821.5,1197.5C 810.229,1187.4 799.063,1177.07 788,1166.5C 786.433,1176.83 784.933,1187.16 783.5,1197.5C 779.647,1217.19 767.981,1229.69 748.5,1235C 690.601,1249.09 636.601,1240.09 586.5,1208C 582.333,1204.5 578.167,1201 574,1197.5C 566.634,1211.53 556.467,1223.03 543.5,1232C 533.103,1237.89 521.937,1240.39 510,1239.5C 462.734,1239.43 417.234,1230.6 373.5,1213C 366.952,1209.29 361.952,1204.12 358.5,1197.5C 357.145,1193.6 355.311,1189.94 353,1186.5C 349.927,1190.06 347.094,1193.73 344.5,1197.5C 321.559,1223.45 292.559,1237.29 257.5,1239C 225.685,1240.15 194.019,1238.48 162.5,1234C 143.376,1231.72 125.376,1226.06 108.5,1217C 102.189,1212.85 98.5219,1207.02 97.5,1199.5C 97.8193,1184.58 100.819,1170.24 106.5,1156.5C 113.228,1139.71 121.562,1123.71 131.5,1108.5C 131.167,1108.17 130.833,1107.83 130.5,1107.5C 126.771,1110 122.604,1111 118,1110.5C 114.132,1110.38 110.299,1110.05 106.5,1109.5C 78.1374,1104.64 61.6374,1087.97 57,1059.5C 55.1158,1038.32 56.4491,1017.32 61,996.5C 66.886,970.178 74.386,944.344 83.5,919C 57.588,922.808 40.088,912.641 31,888.5C 22.4168,856.207 22.4168,823.873 31,791.5C 34.3532,776.754 38.0199,762.087 42,747.5C 49.4798,722.897 56.6464,698.231 63.5,673.5C 30.7174,681.916 11.884,669.25 7,635.5C -0.431137,571.126 18.0689,515.626 62.5,469C 46.698,462.284 36.8647,450.451 33,433.5C 25.9892,396.145 27.6559,359.145 38,322.5C 44.6873,295.802 55.6873,271.135 71,248.5C 76.134,242.365 81.634,236.531 87.5,231C 75.0277,226.175 68.1943,217.009 67,203.5C 62.3928,151.844 85.8928,124.344 137.5,121C 164.799,117.448 189.299,123.948 211,140.5C 209.98,133.755 208.314,127.088 206,120.5C 204.103,104.33 206.769,88.9962 214,74.5C 217.671,68.4974 222.838,64.3308 229.5,62C 245.05,57.6984 260.716,57.365 276.5,61C 296.913,65.4711 316.58,72.1378 335.5,81C 369.497,97.3803 401.663,116.547 432,138.5C 446.284,119.215 460.951,100.215 476,81.5C 485.999,68.8287 497.832,58.3287 511.5,50C 528.661,40.7364 545.327,41.4031 561.5,52C 579.831,65.1635 587.998,82.9968 586,105.5C 613.895,88.4213 644.061,77.2546 676.5,72C 715.603,65.8436 754.937,63.8436 794.5,66C 816.955,67.6976 838.622,72.6976 859.5,81C 870.096,85.6005 878.929,92.4338 886,101.5C 887.725,104.674 889.058,108.007 890,111.5C 892.388,130.125 889.388,147.792 881,164.5C 877.535,168.967 873.702,173.133 869.5,177C 863.947,179.608 858.613,182.441 853.5,185.5 Z"/></g>
<g><path style="opacity:1" fill="#fecbfe" d="M 867.5,702.5 C 879.155,706.326 890.488,710.826 901.5,716C 909.717,718.172 918.051,719.172 926.5,719C 949.08,681.847 941.747,652.513 904.5,631C 887.374,622.607 871.041,612.94 855.5,602C 852.296,599.131 849.463,595.965 847,592.5C 846.817,577.066 844.15,562.066 839,547.5C 831.127,530.754 822.46,514.421 813,498.5C 812.333,503.5 812.333,508.5 813,513.5C 814.192,523.799 816.525,533.799 820,543.5C 822.145,557.227 821.811,570.894 819,584.5C 816.298,591.403 813.464,598.236 810.5,605C 813.531,614.96 815.697,625.126 817,635.5C 818.687,648.691 815.687,660.691 808,671.5C 800.178,678.989 792.678,686.823 785.5,695C 786.301,699.102 787.801,702.936 790,706.5C 800.118,719.956 809.451,733.956 818,748.5C 823.078,761.568 822.078,774.234 815,786.5C 805.835,801.661 792.669,811.494 775.5,816C 783.797,825.09 789.63,835.59 793,847.5C 793.804,853.569 793.471,859.569 792,865.5C 782.655,880.679 768.988,888.679 751,889.5C 737.688,884.214 723.854,881.548 709.5,881.5C 711.625,900.418 708.458,918.418 700,935.5C 695.835,941.999 690.002,946.166 682.5,948C 668.091,949.663 654.424,947.33 641.5,941C 626.313,927.113 612.146,912.28 599,896.5C 602.377,946.73 589.044,991.73 559,1031.5C 536.77,1057.7 508.936,1066.87 475.5,1059C 462,1053.5 452.5,1044 447,1030.5C 444.922,1024.27 443.255,1017.93 442,1011.5C 431.139,1026.36 418.306,1039.19 403.5,1050C 394.452,1053.88 385.119,1054.55 375.5,1052C 355.796,1047.48 340.129,1036.98 328.5,1020.5C 321.603,1034.89 311.937,1047.06 299.5,1057C 295.613,1060.11 291.28,1062.44 286.5,1064C 270.682,1063.5 256.016,1059.17 242.5,1051C 240.622,1049.46 239.122,1047.62 238,1045.5C 225.456,1069.92 213.456,1094.59 202,1119.5C 199.047,1128.31 196.88,1137.31 195.5,1146.5C 195.223,1153.14 198.223,1157.31 204.5,1159C 220.098,1161.25 235.764,1161.92 251.5,1161C 270.988,1157.09 289.321,1150.09 306.5,1140C 325.583,1128.04 344.75,1116.21 364,1104.5C 365.806,1114.03 368.306,1123.36 371.5,1132.5C 363.63,1130.64 357.463,1132.98 353,1139.5C 343.313,1158.7 330.813,1175.87 315.5,1191C 298.769,1204.02 279.769,1211.36 258.5,1213C 222.169,1215.38 186.169,1213.04 150.5,1206C 141.724,1203.64 133.058,1200.97 124.5,1198C 123.293,1192.86 123.46,1187.69 125,1182.5C 130.945,1161.94 139.612,1142.61 151,1124.5C 157.941,1113.23 165.274,1102.23 173,1091.5C 175.573,1079.75 170.907,1073.42 159,1072.5C 145.611,1074.85 132.778,1079.02 120.5,1085C 101.849,1085.98 89.3495,1077.82 83,1060.5C 80.6036,1041.72 81.2703,1023.06 85,1004.5C 93.7702,969.518 103.77,934.851 115,900.5C 115.427,895.41 116.26,890.41 117.5,885.5C 109.493,885.334 101.493,885.5 93.5,886C 87.7192,888.057 82.0526,890.39 76.5,893C 69.2501,893.293 63.4167,890.46 59,884.5C 54.1341,875.031 51.1341,865.031 50,854.5C 48.952,837.646 50.2853,820.979 54,804.5C 58.1217,788.232 62.1217,771.899 66,755.5C 75.8633,722.908 85.53,690.242 95,657.5C 95.6667,651.5 95.6667,645.5 95,639.5C 91.2351,633.24 85.7351,631.073 78.5,633C 75.1667,635 72.5,637.667 70.5,641C 63.0357,645.903 55.0357,649.403 46.5,651.5C 42.4422,651.554 39.2756,649.888 37,646.5C 33.492,639.938 31.492,632.938 31,625.5C 27.6477,575.867 41.981,532.2 74,494.5C 91.6193,473.425 109.119,452.259 126.5,431C 124.654,428.438 122.487,426.271 120,424.5C 107.661,429.948 95.4946,435.781 83.5,442C 74.9653,446.544 67.7986,445.044 62,437.5C 57.9573,429.665 55.624,421.331 55,412.5C 51.2232,363.946 60.8898,318.28 84,275.5C 95.3863,256.448 111.386,242.782 132,234.5C 133.789,219.273 126.956,210.773 111.5,209C 106.511,208.251 101.511,207.585 96.5,207C 94.6227,204.749 93.1227,202.249 92,199.5C 87.8531,170.356 100.02,152.856 128.5,147C 143.931,145.879 159.265,146.545 174.5,149C 185.334,154.581 195.668,160.914 205.5,168C 221.91,180.621 238.41,193.121 255,205.5C 248.653,175.115 240.653,145.115 231,115.5C 229.951,106.461 231.284,97.7944 235,89.5C 236.637,87.1898 238.804,85.6898 241.5,85C 259.665,83.6847 277.332,86.018 294.5,92C 338.127,108.808 378.793,130.808 416.5,158C 423.72,164.854 431.22,171.354 439,177.5C 443.841,167.809 449.175,158.476 455,149.5C 468.382,133.12 481.382,116.453 494,99.5C 499.5,92.6667 505.667,86.5 512.5,81C 520.807,73.5641 530.473,70.5641 541.5,72C 551.207,75.3836 557.04,82.2169 559,92.5C 560.008,102.797 558.675,112.797 555,122.5C 546.819,139.696 537.986,156.53 528.5,173C 532.324,176.079 536.324,178.912 540.5,181.5C 553.682,169.152 566.349,156.318 578.5,143C 607.249,119.738 639.916,104.738 676.5,98C 723.67,89.2818 771.004,88.2818 818.5,95C 833.386,97.4026 847.052,102.736 859.5,111C 863.424,114.847 865.424,119.514 865.5,125C 865.544,137.538 861.21,148.205 852.5,157C 835.571,165.042 819.404,174.208 804,184.5C 799.962,191.947 801.462,198.114 808.5,203C 837.018,217.75 864.018,234.75 889.5,254C 911.986,273.446 919.82,297.612 913,326.5C 909.346,335.647 903.846,343.48 896.5,350C 891.381,349.961 886.381,348.961 881.5,347C 860.135,337.234 838.969,327.068 818,316.5C 826.475,335.786 835.809,354.786 846,373.5C 861.268,400.427 876.935,427.093 893,453.5C 902.236,473.866 906.903,495.199 907,517.5C 904.942,526.555 900.108,533.722 892.5,539C 887.287,541.773 881.954,544.273 876.5,546.5C 863.507,541.241 857.007,545.574 857,559.5C 858.061,562.562 859.894,565.062 862.5,567C 867.772,569.941 872.772,573.274 877.5,577C 904.053,581.858 926.886,593.692 946,612.5C 957.001,626.183 963.334,641.85 965,659.5C 966.163,695.234 965.163,730.901 962,766.5C 961.501,771.664 960.001,776.497 957.5,781C 956.667,781.167 955.833,781.333 955,781.5C 949.956,779.468 945.123,776.968 940.5,774C 914.694,751.694 890.361,727.861 867.5,702.5 Z"/></g>
<g><path style="opacity:0.885" fill="#fdc9fd" d="M 853.5,185.5 C 853.5,190.167 853.5,194.833 853.5,199.5C 849.194,197.012 844.861,194.512 840.5,192C 844.619,189.274 848.952,187.107 853.5,185.5 Z"/></g>
<g><path style="opacity:1" fill="#f7bdf5" d="M 630.5,261.5 C 563.468,226.516 492.468,215.683 417.5,229C 351.26,242.862 295.427,274.695 250,324.5C 192.292,388.1 165.125,463.1 168.5,549.5C 164.486,549.666 160.486,549.499 156.5,549C 149.115,539.945 142.949,530.112 138,519.5C 133.91,509.925 133.577,500.259 137,490.5C 143,481.167 149,471.833 155,462.5C 156.915,457.348 158.082,452.014 158.5,446.5C 157.005,439.541 156.172,432.541 156,425.5C 158.243,421.252 161.243,417.586 165,414.5C 165.471,412.754 166.138,411.087 167,409.5C 167.486,389.313 166.986,369.146 165.5,349C 164.967,340.724 168.3,334.724 175.5,331C 183.5,330 191.5,329 199.5,328C 208.649,325.848 215.482,320.681 220,312.5C 226.333,301.833 232.667,291.167 239,280.5C 243.088,274.705 248.588,272.038 255.5,272.5C 255.853,265.634 258.353,259.634 263,254.5C 277.978,240.586 295.145,230.086 314.5,223C 329.272,222.057 343.605,219.057 357.5,214C 371.598,208.25 385.598,202.416 399.5,196.5C 414.519,202.013 429.519,207.513 444.5,213C 454.769,215.867 465.103,218.533 475.5,221C 481.005,221.796 486.338,221.129 491.5,219C 501.964,215.405 512.131,211.238 522,206.5C 540.587,210.584 558.753,216.084 576.5,223C 588.047,225.758 599.714,227.758 611.5,229C 615.758,230.384 619.258,232.884 622,236.5C 625.897,244.504 628.73,252.837 630.5,261.5 Z"/></g>
<g><path style="opacity:1" fill="#666666" d="M 630.5,261.5 C 680.046,290.879 719.88,330.212 750,379.5C 784.562,441.638 796.896,507.971 787,578.5C 778.343,641.134 753.009,695.801 711,742.5C 630.965,827.512 533.131,860.012 417.5,840C 362.392,828.613 314.058,804.28 272.5,767C 208.216,708.924 173.55,636.424 168.5,549.5C 165.125,463.1 192.292,388.1 250,324.5C 295.427,274.695 351.26,242.862 417.5,229C 492.468,215.683 563.468,226.516 630.5,261.5 Z"/></g>
<g><path style="opacity:1" fill="#7e7e7e" d="M 735.5,426.5 C 721.854,429.263 708.188,432.096 694.5,435C 693.584,435.278 692.918,435.778 692.5,436.5C 660.379,371.89 609.712,329.056 540.5,308C 426.997,284.361 338.83,320.861 276,417.5C 250.103,463.201 240.436,512.201 247,564.5C 251.852,605.835 266.852,642.835 292,675.5C 297.849,682.562 303.683,689.562 309.5,696.5C 299.5,706.5 289.5,716.5 279.5,726.5C 221.627,665.645 196.127,592.978 203,508.5C 208.34,449.513 230.34,397.846 269,353.5C 336.691,277.924 421.191,246.758 522.5,260C 588.137,270.731 642.971,300.898 687,350.5C 707.456,373.076 723.623,398.409 735.5,426.5 Z"/></g>
<g><path style="opacity:1" fill="#666666" d="M 692.5,436.5 C 716.959,492.916 720.126,550.582 702,609.5C 697.233,623.03 691.399,636.03 684.5,648.5C 675.96,663.594 665.96,677.594 654.5,690.5C 641.38,704.625 627.047,717.292 611.5,728.5C 592.957,741.938 572.624,751.938 550.5,758.5C 458.096,783.569 377.763,762.902 309.5,696.5C 303.683,689.562 297.849,682.562 292,675.5C 266.852,642.835 251.852,605.835 247,564.5C 240.436,512.201 250.103,463.201 276,417.5C 338.83,320.861 426.997,284.361 540.5,308C 609.712,329.056 660.379,371.89 692.5,436.5 Z"/></g>
<g><path style="opacity:1" fill="#cbcbcb" d="M 526.5,339.5 C 603.555,389.11 631.388,458.777 610,548.5C 590.016,605.151 551.849,643.984 495.5,665C 420.378,685.649 356.545,667.482 304,610.5C 297.842,602.851 292.175,594.851 287,586.5C 286.329,585.748 285.496,585.414 284.5,585.5C 265.527,491.203 295.527,417.036 374.5,363C 415.487,338.22 459.82,329.22 507.5,336C 513.911,336.849 520.244,338.016 526.5,339.5 Z"/></g>
<g><path style="opacity:1" fill="#bababa" d="M 526.5,339.5 C 590.062,356.556 635.895,394.889 664,454.5C 692.699,527.944 683.699,596.278 637,659.5C 580.29,726.221 509.123,749.054 423.5,728C 363.82,708.661 320.653,670.494 294,613.5C 290.526,604.244 287.359,594.91 284.5,585.5C 285.496,585.414 286.329,585.748 287,586.5C 292.175,594.851 297.842,602.851 304,610.5C 356.545,667.482 420.378,685.649 495.5,665C 551.849,643.984 590.016,605.151 610,548.5C 631.388,458.777 603.555,389.11 526.5,339.5 Z"/></g>
<g><path style="opacity:1" fill="#fefefe" d="M 412.5,364.5 C 421.226,364.161 429.893,364.661 438.5,366C 450.493,370.815 454.993,379.649 452,392.5C 444.892,410.946 432.726,425.113 415.5,435C 403.7,442.156 391.034,447.156 377.5,450C 370.5,450.667 363.5,450.667 356.5,450C 341.524,446.337 335.357,436.837 338,421.5C 343.005,407.484 351.505,395.984 363.5,387C 378.195,375.723 394.528,368.223 412.5,364.5 Z"/></g>
<g><path style="opacity:1" fill="#989898" d="M 735.5,426.5 C 752.696,467.343 759.529,510.009 756,554.5C 753.377,597.527 741.21,637.527 719.5,674.5C 708.377,665.105 696.71,656.438 684.5,648.5C 691.399,636.03 697.233,623.03 702,609.5C 720.126,550.582 716.959,492.916 692.5,436.5C 692.918,435.778 693.584,435.278 694.5,435C 708.188,432.096 721.854,429.263 735.5,426.5 Z"/></g>
<g><path style="opacity:1" fill="#f8bef6" d="M 867.5,702.5 C 865.186,700.523 862.853,698.523 860.5,696.5C 854.5,701.833 848.833,707.5 843.5,713.5C 850.188,720.52 856.855,727.52 863.5,734.5C 862.883,734.611 862.383,734.944 862,735.5C 859.778,746.723 856.778,757.723 853,768.5C 851.723,772.097 851.39,775.764 852,779.5C 860.594,799.072 869.594,818.405 879,837.5C 891.723,870.393 899.723,904.393 903,939.5C 904.182,951.696 903.182,963.696 900,975.5C 897.807,981.188 893.64,984.355 887.5,985C 876.167,985.667 864.833,985.667 853.5,985C 851.782,984.654 850.115,984.154 848.5,983.5C 847.893,983.624 847.56,983.957 847.5,984.5C 843.236,980.889 838.236,979.555 832.5,980.5C 822.417,978.38 812.251,976.046 802,973.5C 801.5,973.833 801,974.167 800.5,974.5C 813.99,999.801 823.823,1026.47 830,1054.5C 836.799,1075.23 843.799,1095.9 851,1116.5C 853.309,1125.99 852.975,1135.32 850,1144.5C 847.933,1147.07 845.433,1149.07 842.5,1150.5C 824.386,1140.84 808.552,1128.17 795,1112.5C 784.221,1098.9 774.054,1084.9 764.5,1070.5C 761.048,1071.73 757.715,1073.23 754.5,1075C 749.833,1079 745.167,1083 740.5,1087C 725.296,1103.2 710.463,1119.7 696,1136.5C 685.64,1146.87 674.14,1155.7 661.5,1163C 649.863,1169.07 637.529,1171.07 624.5,1169C 592.462,1166.3 574.962,1148.8 572,1116.5C 571.555,1110.82 571.055,1105.15 570.5,1099.5C 569.127,1099.34 567.793,1099.51 566.5,1100C 551.887,1114.27 538.387,1129.44 526,1145.5C 514.01,1160.16 500.177,1172.66 484.5,1183C 471.733,1190.62 458.066,1192.62 443.5,1189C 415.355,1183.94 393.689,1169.44 378.5,1145.5C 378.28,1139.97 375.947,1135.63 371.5,1132.5C 368.306,1123.36 365.806,1114.03 364,1104.5C 344.75,1116.21 325.583,1128.04 306.5,1140C 289.321,1150.09 270.988,1157.09 251.5,1161C 235.764,1161.92 220.098,1161.25 204.5,1159C 198.223,1157.31 195.223,1153.14 195.5,1146.5C 196.88,1137.31 199.047,1128.31 202,1119.5C 213.456,1094.59 225.456,1069.92 238,1045.5C 239.122,1047.62 240.622,1049.46 242.5,1051C 256.016,1059.17 270.682,1063.5 286.5,1064C 291.28,1062.44 295.613,1060.11 299.5,1057C 311.937,1047.06 321.603,1034.89 328.5,1020.5C 340.129,1036.98 355.796,1047.48 375.5,1052C 385.119,1054.55 394.452,1053.88 403.5,1050C 418.306,1039.19 431.139,1026.36 442,1011.5C 443.255,1017.93 444.922,1024.27 447,1030.5C 452.5,1044 462,1053.5 475.5,1059C 508.936,1066.87 536.77,1057.7 559,1031.5C 589.044,991.73 602.377,946.73 599,896.5C 612.146,912.28 626.313,927.113 641.5,941C 654.424,947.33 668.091,949.663 682.5,948C 690.002,946.166 695.835,941.999 700,935.5C 708.458,918.418 711.625,900.418 709.5,881.5C 723.854,881.548 737.688,884.214 751,889.5C 768.988,888.679 782.655,880.679 792,865.5C 793.471,859.569 793.804,853.569 793,847.5C 789.63,835.59 783.797,825.09 775.5,816C 792.669,811.494 805.835,801.661 815,786.5C 822.078,774.234 823.078,761.568 818,748.5C 809.451,733.956 800.118,719.956 790,706.5C 787.801,702.936 786.301,699.102 785.5,695C 792.678,686.823 800.178,678.989 808,671.5C 815.687,660.691 818.687,648.691 817,635.5C 815.697,625.126 813.531,614.96 810.5,605C 813.464,598.236 816.298,591.403 819,584.5C 821.811,570.894 822.145,557.227 820,543.5C 816.525,533.799 814.192,523.799 813,513.5C 812.333,508.5 812.333,503.5 813,498.5C 822.46,514.421 831.127,530.754 839,547.5C 844.15,562.066 846.817,577.066 847,592.5C 849.463,595.965 852.296,599.131 855.5,602C 871.041,612.94 887.374,622.607 904.5,631C 941.747,652.513 949.08,681.847 926.5,719C 918.051,719.172 909.717,718.172 901.5,716C 890.488,710.826 879.155,706.326 867.5,702.5 Z"/></g>
<g><path style="opacity:1" fill="#fdfdfd" d="M 684.5,648.5 C 696.71,656.438 708.377,665.105 719.5,674.5C 709.548,691.386 697.881,707.053 684.5,721.5C 673.877,711.875 663.877,701.542 654.5,690.5C 665.96,677.594 675.96,663.594 684.5,648.5 Z"/></g>
<g><path style="opacity:1" fill="#999999" d="M 654.5,690.5 C 663.877,701.542 673.877,711.875 684.5,721.5C 669.346,738.322 652.346,752.989 633.5,765.5C 626.404,752.966 619.07,740.633 611.5,728.5C 627.047,717.292 641.38,704.625 654.5,690.5 Z"/></g>
<g><path style="opacity:1" fill="#989898" d="M 309.5,696.5 C 377.763,762.902 458.096,783.569 550.5,758.5C 553.996,770.481 557.496,782.481 561,794.5C 561.549,796.76 562.716,798.426 564.5,799.5C 496.985,819.932 430.651,816.432 365.5,789C 332.774,773.778 304.108,752.944 279.5,726.5C 289.5,716.5 299.5,706.5 309.5,696.5 Z"/></g>
<g><path style="opacity:1" fill="#fdfdfd" d="M 611.5,728.5 C 619.07,740.633 626.404,752.966 633.5,765.5C 612.561,780.802 589.561,792.136 564.5,799.5C 562.716,798.426 561.549,796.76 561,794.5C 557.496,782.481 553.996,770.481 550.5,758.5C 572.624,751.938 592.957,741.938 611.5,728.5 Z"/></g>
<g><path style="opacity:1" fill="#fecbfe" d="M 863.5,734.5 C 866.738,737.71 868.572,741.71 869,746.5C 876.588,755.998 882.921,766.331 888,777.5C 912.247,829.817 931.914,883.817 947,939.5C 952.53,969.072 948.863,997.405 936,1024.5C 930.061,1035.39 921.228,1038.89 909.5,1035C 897.429,1029.58 886.429,1022.58 876.5,1014C 866.631,1004.3 856.964,994.465 847.5,984.5C 847.56,983.957 847.893,983.624 848.5,983.5C 850.115,984.154 851.782,984.654 853.5,985C 864.833,985.667 876.167,985.667 887.5,985C 893.64,984.355 897.807,981.188 900,975.5C 903.182,963.696 904.182,951.696 903,939.5C 899.723,904.393 891.723,870.393 879,837.5C 869.594,818.405 860.594,799.072 852,779.5C 851.39,775.764 851.723,772.097 853,768.5C 856.778,757.723 859.778,746.723 862,735.5C 862.383,734.944 862.883,734.611 863.5,734.5 Z"/></g>
<g><path style="opacity:1" fill="#fecbfe" d="M 832.5,980.5 C 825.954,984.348 823.788,990.015 826,997.5C 847.594,1044.28 863.594,1092.95 874,1143.5C 875.394,1156.14 875.727,1168.81 875,1181.5C 874.416,1187.42 872.916,1193.08 870.5,1198.5C 866.929,1199.25 863.595,1198.42 860.5,1196C 851.833,1189.33 843.167,1182.67 834.5,1176C 811.024,1154.36 788.024,1132.19 765.5,1109.5C 765.44,1108.96 765.107,1108.62 764.5,1108.5C 763.501,1121.82 763.167,1135.15 763.5,1148.5C 763.813,1165.95 761.313,1182.95 756,1199.5C 754.167,1202.67 751.667,1205.17 748.5,1207C 732.589,1213.96 715.923,1216.8 698.5,1215.5C 663.292,1215.6 630.958,1206.1 601.5,1187C 589.428,1178.69 583.261,1167.19 583,1152.5C 579.268,1146.95 574.101,1145.12 567.5,1147C 565.376,1148.12 563.543,1149.62 562,1151.5C 559.731,1172.87 550.897,1191.04 535.5,1206C 526.846,1212.66 517.013,1215.49 506,1214.5C 483.761,1212.66 461.594,1210.16 439.5,1207C 422.01,1203.61 405.01,1198.61 388.5,1192C 382.587,1188.03 378.754,1182.53 377,1175.5C 376.637,1165.46 377.137,1155.46 378.5,1145.5C 393.689,1169.44 415.355,1183.94 443.5,1189C 458.066,1192.62 471.733,1190.62 484.5,1183C 500.177,1172.66 514.01,1160.16 526,1145.5C 538.387,1129.44 551.887,1114.27 566.5,1100C 567.793,1099.51 569.127,1099.34 570.5,1099.5C 571.055,1105.15 571.555,1110.82 572,1116.5C 574.962,1148.8 592.462,1166.3 624.5,1169C 637.529,1171.07 649.863,1169.07 661.5,1163C 674.14,1155.7 685.64,1146.87 696,1136.5C 710.463,1119.7 725.296,1103.2 740.5,1087C 745.167,1083 749.833,1079 754.5,1075C 757.715,1073.23 761.048,1071.73 764.5,1070.5C 774.054,1084.9 784.221,1098.9 795,1112.5C 808.552,1128.17 824.386,1140.84 842.5,1150.5C 845.433,1149.07 847.933,1147.07 850,1144.5C 852.975,1135.32 853.309,1125.99 851,1116.5C 843.799,1095.9 836.799,1075.23 830,1054.5C 823.823,1026.47 813.99,999.801 800.5,974.5C 801,974.167 801.5,973.833 802,973.5C 812.251,976.046 822.417,978.38 832.5,980.5 Z"/></g>
<g><path style="opacity:1" fill="#e9a2e1" d="M 765.5,1109.5 C 764.833,1122.5 764.167,1135.5 763.5,1148.5C 763.167,1135.15 763.501,1121.82 764.5,1108.5C 765.107,1108.62 765.44,1108.96 765.5,1109.5 Z"/></g>
<g><path style="opacity:0.977" fill="#fecafe" d="M 106.5,1156.5 C 106.5,1140.83 106.5,1125.17 106.5,1109.5C 110.299,1110.05 114.132,1110.38 118,1110.5C 122.604,1111 126.771,1110 130.5,1107.5C 130.833,1107.83 131.167,1108.17 131.5,1108.5C 121.562,1123.71 113.228,1139.71 106.5,1156.5 Z"/></g>
<g><path style="opacity:0.983" fill="#fecbfe" d="M 821.5,1197.5 C 808.833,1197.5 796.167,1197.5 783.5,1197.5C 784.933,1187.16 786.433,1176.83 788,1166.5C 799.063,1177.07 810.229,1187.4 821.5,1197.5 Z"/></g>
<g><path style="opacity:0.955" fill="#fdc8fc" d="M 358.5,1197.5 C 353.833,1197.5 349.167,1197.5 344.5,1197.5C 347.094,1193.73 349.927,1190.06 353,1186.5C 355.311,1189.94 357.145,1193.6 358.5,1197.5 Z"/></g>
</svg>
